<?xml version="1.0" encoding="utf-8" standalone="no"?>
<!DOCTYPE svg PUBLIC "-//W3C//DTD SVG 1.1//EN"
  "http://www.w3.org/Graphics/SVG/1.1/DTD/svg11.dtd">
<svg xmlns:xlink="http://www.w3.org/1999/xlink" width="504pt" height="432pt" viewBox="0 0 504 432" xmlns="http://www.w3.org/2000/svg" version="1.1">
 <metadata>
  <rdf:RDF xmlns:dc="http://purl.org/dc/elements/1.1/" xmlns:cc="http://creativecommons.org/ns#" xmlns:rdf="http://www.w3.org/1999/02/22-rdf-syntax-ns#">
   <cc:Work>
    <dc:type rdf:resource="http://purl.org/dc/dcmitype/StillImage"/>
    <dc:date>2026-07-15T09:11:55.977739</dc:date>
    <dc:format>image/svg+xml</dc:format>
    <dc:creator>
     <cc:Agent>
      <dc:title>Matplotlib v3.10.9, https://matplotlib.org/</dc:title>
     </cc:Agent>
    </dc:creator>
   </cc:Work>
  </rdf:RDF>
 </metadata>
 <defs>
  <style type="text/css">*{stroke-linejoin: round; stroke-linecap: butt}</style>
 </defs>
 <g id="figure_1">
  <g id="patch_1">
   <path d="M 0 432 
L 504 432 
L 504 0 
L 0 0 
L 0 432 
z
" style="fill: none"/>
  </g>
  <g id="axes_1">
   <g id="patch_2">
    <path d="M 37.16375 414.2072 
L 495.36 414.2072 
L 495.36 20.43375 
L 37.16375 20.43375 
L 37.16375 414.2072 
z
" style="fill: none"/>
   </g>
   <g id="matplotlib.axis_1">
    <g id="xtick_1"/>
    <g id="xtick_2"/>
    <g id="xtick_3"/>
    <g id="xtick_4"/>
    <g id="xtick_5"/>
    <g id="xtick_6"/>
    <g id="xtick_7"/>
    <g id="xtick_8"/>
    <g id="xtick_9"/>
    <g id="xtick_10"/>
    <g id="xtick_11"/>
    <g id="xtick_12"/>
    <g id="xtick_13"/>
    <g id="xtick_14"/>
    <g id="xtick_15"/>
    <g id="xtick_16"/>
    <g id="xtick_17"/>
    <g id="xtick_18"/>
    <g id="xtick_19"/>
    <g id="xtick_20"/>
    <g id="xtick_21"/>
    <g id="xtick_22"/>
    <g id="xtick_23"/>
    <g id="xtick_24"/>
    <g id="xtick_25"/>
    <g id="xtick_26"/>
    <g id="xtick_27"/>
    <g id="xtick_28"/>
    <g id="xtick_29"/>
    <g id="xtick_30"/>
    <g id="xtick_31"/>
    <g id="xtick_32"/>
    <g id="xtick_33"/>
    <g id="xtick_34"/>
    <g id="xtick_35"/>
    <g id="xtick_36"/>
    <g id="xtick_37"/>
    <g id="xtick_38"/>
    <g id="xtick_39"/>
    <g id="xtick_40"/>
    <g id="xtick_41"/>
    <g id="xtick_42"/>
    <g id="xtick_43"/>
    <g id="xtick_44"/>
    <g id="xtick_45"/>
    <g id="xtick_46"/>
    <g id="xtick_47"/>
    <g id="xtick_48"/>
    <g id="xtick_49"/>
    <g id="xtick_50"/>
    <g id="xtick_51"/>
    <g id="xtick_52"/>
    <g id="xtick_53"/>
    <g id="xtick_54"/>
    <g id="xtick_55"/>
    <g id="xtick_56"/>
    <g id="xtick_57"/>
   </g>
   <g id="matplotlib.axis_2">
    <g id="ytick_1">
     <g id="line2d_1">
      <defs>
       <path id="mb9841d2165" d="M 0 0 
L -2 0 
" style="stroke: #000000; stroke-width: 0.5"/>
      </defs>
      <g>
       <use xlink:href="#mb9841d2165" x="37.16375" y="414.2072" style="stroke: #000000; stroke-width: 0.5"/>
      </g>
     </g>
     <g id="text_1">
      <!-- 0.0 -->
      <g transform="translate(23.32375 416.354544) scale(0.06 -0.06)">
       <defs>
        <path id="ArialMT-30" d="M 266 2259 
Q 266 3072 433 3567 
Q 600 4063 929 4331 
Q 1259 4600 1759 4600 
Q 2128 4600 2406 4451 
Q 2684 4303 2865 4023 
Q 3047 3744 3150 3342 
Q 3253 2941 3253 2259 
Q 3253 1453 3087 958 
Q 2922 463 2592 192 
Q 2263 -78 1759 -78 
Q 1097 -78 719 397 
Q 266 969 266 2259 
z
M 844 2259 
Q 844 1131 1108 757 
Q 1372 384 1759 384 
Q 2147 384 2411 759 
Q 2675 1134 2675 2259 
Q 2675 3391 2411 3762 
Q 2147 4134 1753 4134 
Q 1366 4134 1134 3806 
Q 844 3388 844 2259 
z
" transform="scale(0.015625)"/>
        <path id="ArialMT-2e" d="M 581 0 
L 581 641 
L 1222 641 
L 1222 0 
L 581 0 
z
" transform="scale(0.015625)"/>
       </defs>
       <use xlink:href="#ArialMT-30"/>
       <use xlink:href="#ArialMT-2e" transform="translate(55.615234 0)"/>
       <use xlink:href="#ArialMT-30" transform="translate(83.398438 0)"/>
      </g>
     </g>
    </g>
    <g id="ytick_2">
     <g id="line2d_2">
      <g>
       <use xlink:href="#mb9841d2165" x="37.16375" y="363.285124" style="stroke: #000000; stroke-width: 0.5"/>
      </g>
     </g>
     <g id="text_2">
      <!-- 2.5 -->
      <g transform="translate(23.32375 365.432467) scale(0.06 -0.06)">
       <defs>
        <path id="ArialMT-32" d="M 3222 541 
L 3222 0 
L 194 0 
Q 188 203 259 391 
Q 375 700 629 1000 
Q 884 1300 1366 1694 
Q 2113 2306 2375 2664 
Q 2638 3022 2638 3341 
Q 2638 3675 2398 3904 
Q 2159 4134 1775 4134 
Q 1369 4134 1125 3890 
Q 881 3647 878 3216 
L 300 3275 
Q 359 3922 746 4261 
Q 1134 4600 1788 4600 
Q 2447 4600 2831 4234 
Q 3216 3869 3216 3328 
Q 3216 3053 3103 2787 
Q 2991 2522 2730 2228 
Q 2469 1934 1863 1422 
Q 1356 997 1212 845 
Q 1069 694 975 541 
L 3222 541 
z
" transform="scale(0.015625)"/>
        <path id="ArialMT-35" d="M 266 1200 
L 856 1250 
Q 922 819 1161 601 
Q 1400 384 1738 384 
Q 2144 384 2425 690 
Q 2706 997 2706 1503 
Q 2706 1984 2436 2262 
Q 2166 2541 1728 2541 
Q 1456 2541 1237 2417 
Q 1019 2294 894 2097 
L 366 2166 
L 809 4519 
L 3088 4519 
L 3088 3981 
L 1259 3981 
L 1013 2750 
Q 1425 3038 1878 3038 
Q 2478 3038 2890 2622 
Q 3303 2206 3303 1553 
Q 3303 931 2941 478 
Q 2500 -78 1738 -78 
Q 1113 -78 717 272 
Q 322 622 266 1200 
z
" transform="scale(0.015625)"/>
       </defs>
       <use xlink:href="#ArialMT-32"/>
       <use xlink:href="#ArialMT-2e" transform="translate(55.615234 0)"/>
       <use xlink:href="#ArialMT-35" transform="translate(83.398438 0)"/>
      </g>
     </g>
    </g>
    <g id="ytick_3">
     <g id="line2d_3">
      <g>
       <use xlink:href="#mb9841d2165" x="37.16375" y="312.363047" style="stroke: #000000; stroke-width: 0.5"/>
      </g>
     </g>
     <g id="text_3">
      <!-- 5.0 -->
      <g transform="translate(23.32375 314.510391) scale(0.06 -0.06)">
       <use xlink:href="#ArialMT-35"/>
       <use xlink:href="#ArialMT-2e" transform="translate(55.615234 0)"/>
       <use xlink:href="#ArialMT-30" transform="translate(83.398438 0)"/>
      </g>
     </g>
    </g>
    <g id="ytick_4">
     <g id="line2d_4">
      <g>
       <use xlink:href="#mb9841d2165" x="37.16375" y="261.440971" style="stroke: #000000; stroke-width: 0.5"/>
      </g>
     </g>
     <g id="text_4">
      <!-- 7.5 -->
      <g transform="translate(23.32375 263.588315) scale(0.06 -0.06)">
       <defs>
        <path id="ArialMT-37" d="M 303 3981 
L 303 4522 
L 3269 4522 
L 3269 4084 
Q 2831 3619 2401 2847 
Q 1972 2075 1738 1259 
Q 1569 684 1522 0 
L 944 0 
Q 953 541 1156 1306 
Q 1359 2072 1739 2783 
Q 2119 3494 2547 3981 
L 303 3981 
z
" transform="scale(0.015625)"/>
       </defs>
       <use xlink:href="#ArialMT-37"/>
       <use xlink:href="#ArialMT-2e" transform="translate(55.615234 0)"/>
       <use xlink:href="#ArialMT-35" transform="translate(83.398438 0)"/>
      </g>
     </g>
    </g>
    <g id="ytick_5">
     <g id="line2d_5">
      <g>
       <use xlink:href="#mb9841d2165" x="37.16375" y="210.518895" style="stroke: #000000; stroke-width: 0.5"/>
      </g>
     </g>
     <g id="text_5">
      <!-- 10.0 -->
      <g transform="translate(19.987188 212.666239) scale(0.06 -0.06)">
       <defs>
        <path id="ArialMT-31" d="M 2384 0 
L 1822 0 
L 1822 3584 
Q 1619 3391 1289 3197 
Q 959 3003 697 2906 
L 697 3450 
Q 1169 3672 1522 3987 
Q 1875 4303 2022 4600 
L 2384 4600 
L 2384 0 
z
" transform="scale(0.015625)"/>
       </defs>
       <use xlink:href="#ArialMT-31"/>
       <use xlink:href="#ArialMT-30" transform="translate(55.615234 0)"/>
       <use xlink:href="#ArialMT-2e" transform="translate(111.230469 0)"/>
       <use xlink:href="#ArialMT-30" transform="translate(139.013672 0)"/>
      </g>
     </g>
    </g>
    <g id="ytick_6">
     <g id="line2d_6">
      <g>
       <use xlink:href="#mb9841d2165" x="37.16375" y="159.596819" style="stroke: #000000; stroke-width: 0.5"/>
      </g>
     </g>
     <g id="text_6">
      <!-- 12.5 -->
      <g transform="translate(19.987188 161.744162) scale(0.06 -0.06)">
       <use xlink:href="#ArialMT-31"/>
       <use xlink:href="#ArialMT-32" transform="translate(55.615234 0)"/>
       <use xlink:href="#ArialMT-2e" transform="translate(111.230469 0)"/>
       <use xlink:href="#ArialMT-35" transform="translate(139.013672 0)"/>
      </g>
     </g>
    </g>
    <g id="ytick_7">
     <g id="line2d_7">
      <g>
       <use xlink:href="#mb9841d2165" x="37.16375" y="108.674742" style="stroke: #000000; stroke-width: 0.5"/>
      </g>
     </g>
     <g id="text_7">
      <!-- 15.0 -->
      <g transform="translate(19.987188 110.822086) scale(0.06 -0.06)">
       <use xlink:href="#ArialMT-31"/>
       <use xlink:href="#ArialMT-35" transform="translate(55.615234 0)"/>
       <use xlink:href="#ArialMT-2e" transform="translate(111.230469 0)"/>
       <use xlink:href="#ArialMT-30" transform="translate(139.013672 0)"/>
      </g>
     </g>
    </g>
    <g id="ytick_8">
     <g id="line2d_8">
      <g>
       <use xlink:href="#mb9841d2165" x="37.16375" y="57.752666" style="stroke: #000000; stroke-width: 0.5"/>
      </g>
     </g>
     <g id="text_8">
      <!-- 17.5 -->
      <g transform="translate(19.987188 59.90001) scale(0.06 -0.06)">
       <use xlink:href="#ArialMT-31"/>
       <use xlink:href="#ArialMT-37" transform="translate(55.615234 0)"/>
       <use xlink:href="#ArialMT-2e" transform="translate(111.230469 0)"/>
       <use xlink:href="#ArialMT-35" transform="translate(139.013672 0)"/>
      </g>
     </g>
    </g>
    <g id="text_9">
     <!-- Linkage Distance -->
     <g transform="translate(14.303437 248.004225) rotate(-90) scale(0.08 -0.08)">
      <defs>
       <path id="ArialMT-4c" d="M 469 0 
L 469 4581 
L 1075 4581 
L 1075 541 
L 3331 541 
L 3331 0 
L 469 0 
z
" transform="scale(0.015625)"/>
       <path id="ArialMT-69" d="M 425 3934 
L 425 4581 
L 988 4581 
L 988 3934 
L 425 3934 
z
M 425 0 
L 425 3319 
L 988 3319 
L 988 0 
L 425 0 
z
" transform="scale(0.015625)"/>
       <path id="ArialMT-6e" d="M 422 0 
L 422 3319 
L 928 3319 
L 928 2847 
Q 1294 3394 1984 3394 
Q 2284 3394 2536 3286 
Q 2788 3178 2913 3003 
Q 3038 2828 3088 2588 
Q 3119 2431 3119 2041 
L 3119 0 
L 2556 0 
L 2556 2019 
Q 2556 2363 2490 2533 
Q 2425 2703 2258 2804 
Q 2091 2906 1866 2906 
Q 1506 2906 1245 2678 
Q 984 2450 984 1813 
L 984 0 
L 422 0 
z
" transform="scale(0.015625)"/>
       <path id="ArialMT-6b" d="M 425 0 
L 425 4581 
L 988 4581 
L 988 1969 
L 2319 3319 
L 3047 3319 
L 1778 2088 
L 3175 0 
L 2481 0 
L 1384 1697 
L 988 1316 
L 988 0 
L 425 0 
z
" transform="scale(0.015625)"/>
       <path id="ArialMT-61" d="M 2588 409 
Q 2275 144 1986 34 
Q 1697 -75 1366 -75 
Q 819 -75 525 192 
Q 231 459 231 875 
Q 231 1119 342 1320 
Q 453 1522 633 1644 
Q 813 1766 1038 1828 
Q 1203 1872 1538 1913 
Q 2219 1994 2541 2106 
Q 2544 2222 2544 2253 
Q 2544 2597 2384 2738 
Q 2169 2928 1744 2928 
Q 1347 2928 1158 2789 
Q 969 2650 878 2297 
L 328 2372 
Q 403 2725 575 2942 
Q 747 3159 1072 3276 
Q 1397 3394 1825 3394 
Q 2250 3394 2515 3294 
Q 2781 3194 2906 3042 
Q 3031 2891 3081 2659 
Q 3109 2516 3109 2141 
L 3109 1391 
Q 3109 606 3145 398 
Q 3181 191 3288 0 
L 2700 0 
Q 2613 175 2588 409 
z
M 2541 1666 
Q 2234 1541 1622 1453 
Q 1275 1403 1131 1340 
Q 988 1278 909 1158 
Q 831 1038 831 891 
Q 831 666 1001 516 
Q 1172 366 1500 366 
Q 1825 366 2078 508 
Q 2331 650 2450 897 
Q 2541 1088 2541 1459 
L 2541 1666 
z
" transform="scale(0.015625)"/>
       <path id="ArialMT-67" d="M 319 -275 
L 866 -356 
Q 900 -609 1056 -725 
Q 1266 -881 1628 -881 
Q 2019 -881 2231 -725 
Q 2444 -569 2519 -288 
Q 2563 -116 2559 434 
Q 2191 0 1641 0 
Q 956 0 581 494 
Q 206 988 206 1678 
Q 206 2153 378 2554 
Q 550 2956 876 3175 
Q 1203 3394 1644 3394 
Q 2231 3394 2613 2919 
L 2613 3319 
L 3131 3319 
L 3131 450 
Q 3131 -325 2973 -648 
Q 2816 -972 2473 -1159 
Q 2131 -1347 1631 -1347 
Q 1038 -1347 672 -1080 
Q 306 -813 319 -275 
z
M 784 1719 
Q 784 1066 1043 766 
Q 1303 466 1694 466 
Q 2081 466 2343 764 
Q 2606 1063 2606 1700 
Q 2606 2309 2336 2618 
Q 2066 2928 1684 2928 
Q 1309 2928 1046 2623 
Q 784 2319 784 1719 
z
" transform="scale(0.015625)"/>
       <path id="ArialMT-65" d="M 2694 1069 
L 3275 997 
Q 3138 488 2766 206 
Q 2394 -75 1816 -75 
Q 1088 -75 661 373 
Q 234 822 234 1631 
Q 234 2469 665 2931 
Q 1097 3394 1784 3394 
Q 2450 3394 2872 2941 
Q 3294 2488 3294 1666 
Q 3294 1616 3291 1516 
L 816 1516 
Q 847 969 1125 678 
Q 1403 388 1819 388 
Q 2128 388 2347 550 
Q 2566 713 2694 1069 
z
M 847 1978 
L 2700 1978 
Q 2663 2397 2488 2606 
Q 2219 2931 1791 2931 
Q 1403 2931 1139 2672 
Q 875 2413 847 1978 
z
" transform="scale(0.015625)"/>
       <path id="ArialMT-20" transform="scale(0.015625)"/>
       <path id="ArialMT-44" d="M 494 0 
L 494 4581 
L 2072 4581 
Q 2606 4581 2888 4516 
Q 3281 4425 3559 4188 
Q 3922 3881 4101 3404 
Q 4281 2928 4281 2316 
Q 4281 1794 4159 1391 
Q 4038 988 3847 723 
Q 3656 459 3429 307 
Q 3203 156 2883 78 
Q 2563 0 2147 0 
L 494 0 
z
M 1100 541 
L 2078 541 
Q 2531 541 2789 625 
Q 3047 709 3200 863 
Q 3416 1078 3536 1442 
Q 3656 1806 3656 2325 
Q 3656 3044 3420 3430 
Q 3184 3816 2847 3947 
Q 2603 4041 2063 4041 
L 1100 4041 
L 1100 541 
z
" transform="scale(0.015625)"/>
       <path id="ArialMT-73" d="M 197 991 
L 753 1078 
Q 800 744 1014 566 
Q 1228 388 1613 388 
Q 2000 388 2187 545 
Q 2375 703 2375 916 
Q 2375 1106 2209 1216 
Q 2094 1291 1634 1406 
Q 1016 1563 777 1677 
Q 538 1791 414 1992 
Q 291 2194 291 2438 
Q 291 2659 392 2848 
Q 494 3038 669 3163 
Q 800 3259 1026 3326 
Q 1253 3394 1513 3394 
Q 1903 3394 2198 3281 
Q 2494 3169 2634 2976 
Q 2775 2784 2828 2463 
L 2278 2388 
Q 2241 2644 2061 2787 
Q 1881 2931 1553 2931 
Q 1166 2931 1000 2803 
Q 834 2675 834 2503 
Q 834 2394 903 2306 
Q 972 2216 1119 2156 
Q 1203 2125 1616 2013 
Q 2213 1853 2448 1751 
Q 2684 1650 2818 1456 
Q 2953 1263 2953 975 
Q 2953 694 2789 445 
Q 2625 197 2315 61 
Q 2006 -75 1616 -75 
Q 969 -75 630 194 
Q 291 463 197 991 
z
" transform="scale(0.015625)"/>
       <path id="ArialMT-74" d="M 1650 503 
L 1731 6 
Q 1494 -44 1306 -44 
Q 1000 -44 831 53 
Q 663 150 594 308 
Q 525 466 525 972 
L 525 2881 
L 113 2881 
L 113 3319 
L 525 3319 
L 525 4141 
L 1084 4478 
L 1084 3319 
L 1650 3319 
L 1650 2881 
L 1084 2881 
L 1084 941 
Q 1084 700 1114 631 
Q 1144 563 1211 522 
Q 1278 481 1403 481 
Q 1497 481 1650 503 
z
" transform="scale(0.015625)"/>
       <path id="ArialMT-63" d="M 2588 1216 
L 3141 1144 
Q 3050 572 2676 248 
Q 2303 -75 1759 -75 
Q 1078 -75 664 370 
Q 250 816 250 1647 
Q 250 2184 428 2587 
Q 606 2991 970 3192 
Q 1334 3394 1763 3394 
Q 2303 3394 2647 3120 
Q 2991 2847 3088 2344 
L 2541 2259 
Q 2463 2594 2264 2762 
Q 2066 2931 1784 2931 
Q 1359 2931 1093 2626 
Q 828 2322 828 1663 
Q 828 994 1084 691 
Q 1341 388 1753 388 
Q 2084 388 2306 591 
Q 2528 794 2588 1216 
z
" transform="scale(0.015625)"/>
      </defs>
      <use xlink:href="#ArialMT-4c"/>
      <use xlink:href="#ArialMT-69" transform="translate(55.615234 0)"/>
      <use xlink:href="#ArialMT-6e" transform="translate(77.832031 0)"/>
      <use xlink:href="#ArialMT-6b" transform="translate(133.447266 0)"/>
      <use xlink:href="#ArialMT-61" transform="translate(183.447266 0)"/>
      <use xlink:href="#ArialMT-67" transform="translate(239.0625 0)"/>
      <use xlink:href="#ArialMT-65" transform="translate(294.677734 0)"/>
      <use xlink:href="#ArialMT-20" transform="translate(350.292969 0)"/>
      <use xlink:href="#ArialMT-44" transform="translate(378.076172 0)"/>
      <use xlink:href="#ArialMT-69" transform="translate(450.292969 0)"/>
      <use xlink:href="#ArialMT-73" transform="translate(472.509766 0)"/>
      <use xlink:href="#ArialMT-74" transform="translate(522.509766 0)"/>
      <use xlink:href="#ArialMT-61" transform="translate(550.292969 0)"/>
      <use xlink:href="#ArialMT-6e" transform="translate(605.908203 0)"/>
      <use xlink:href="#ArialMT-63" transform="translate(661.523438 0)"/>
      <use xlink:href="#ArialMT-65" transform="translate(711.523438 0)"/>
     </g>
    </g>
   </g>
   <g id="LineCollection_1">
    <path d="M 49.221546 414.2072 
L 49.221546 375.200605 
L 57.260077 375.200605 
L 57.260077 414.2072 
" clip-path="url(#p7d1ad5ac1b)" style="fill: none; stroke: #d62728; stroke-width: 1.5"/>
    <path d="M 41.183015 414.2072 
L 41.183015 363.98536 
L 53.240811 363.98536 
L 53.240811 375.200605 
" clip-path="url(#p7d1ad5ac1b)" style="fill: none; stroke: #d62728; stroke-width: 1.5"/>
    <path d="M 81.375669 414.2072 
L 81.375669 389.514283 
L 89.4142 389.514283 
L 89.4142 414.2072 
" clip-path="url(#p7d1ad5ac1b)" style="fill: none; stroke: #d62728; stroke-width: 1.5"/>
    <path d="M 73.337138 414.2072 
L 73.337138 379.500309 
L 85.394934 379.500309 
L 85.394934 389.514283 
" clip-path="url(#p7d1ad5ac1b)" style="fill: none; stroke: #d62728; stroke-width: 1.5"/>
    <path d="M 65.298607 414.2072 
L 65.298607 369.583507 
L 79.366036 369.583507 
L 79.366036 379.500309 
" clip-path="url(#p7d1ad5ac1b)" style="fill: none; stroke: #d62728; stroke-width: 1.5"/>
    <path d="M 113.529792 414.2072 
L 113.529792 387.622909 
L 121.568322 387.622909 
L 121.568322 414.2072 
" clip-path="url(#p7d1ad5ac1b)" style="fill: none; stroke: #d62728; stroke-width: 1.5"/>
    <path d="M 105.491261 414.2072 
L 105.491261 376.18003 
L 117.549057 376.18003 
L 117.549057 387.622909 
" clip-path="url(#p7d1ad5ac1b)" style="fill: none; stroke: #d62728; stroke-width: 1.5"/>
    <path d="M 97.45273 414.2072 
L 97.45273 361.186884 
L 111.520159 361.186884 
L 111.520159 376.18003 
" clip-path="url(#p7d1ad5ac1b)" style="fill: none; stroke: #d62728; stroke-width: 1.5"/>
    <path d="M 72.332322 369.583507 
L 72.332322 325.906533 
L 104.486445 325.906533 
L 104.486445 361.186884 
" clip-path="url(#p7d1ad5ac1b)" style="fill: none; stroke: #d62728; stroke-width: 1.5"/>
    <path d="M 47.211913 363.98536 
L 47.211913 303.538812 
L 88.409383 303.538812 
L 88.409383 325.906533 
" clip-path="url(#p7d1ad5ac1b)" style="fill: none; stroke: #d62728; stroke-width: 1.5"/>
   </g>
   <g id="LineCollection_2">
    <path d="M 129.606853 414.2072 
L 129.606853 373.029316 
L 137.645384 373.029316 
L 137.645384 414.2072 
" clip-path="url(#p7d1ad5ac1b)" style="fill: none; stroke: #2ca02c; stroke-width: 1.5"/>
    <path d="M 153.722445 414.2072 
L 153.722445 399.198597 
L 161.760976 399.198597 
L 161.760976 414.2072 
" clip-path="url(#p7d1ad5ac1b)" style="fill: none; stroke: #2ca02c; stroke-width: 1.5"/>
    <path d="M 145.683914 414.2072 
L 145.683914 372.892257 
L 157.741711 372.892257 
L 157.741711 399.198597 
" clip-path="url(#p7d1ad5ac1b)" style="fill: none; stroke: #2ca02c; stroke-width: 1.5"/>
    <path d="M 133.626118 373.029316 
L 133.626118 363.57746 
L 151.712813 363.57746 
L 151.712813 372.892257 
" clip-path="url(#p7d1ad5ac1b)" style="fill: none; stroke: #2ca02c; stroke-width: 1.5"/>
    <path d="M 177.838037 414.2072 
L 177.838037 386.207153 
L 185.876568 386.207153 
L 185.876568 414.2072 
" clip-path="url(#p7d1ad5ac1b)" style="fill: none; stroke: #2ca02c; stroke-width: 1.5"/>
    <path d="M 169.799507 414.2072 
L 169.799507 371.94665 
L 181.857303 371.94665 
L 181.857303 386.207153 
" clip-path="url(#p7d1ad5ac1b)" style="fill: none; stroke: #2ca02c; stroke-width: 1.5"/>
    <path d="M 201.953629 414.2072 
L 201.953629 391.673636 
L 209.99216 391.673636 
L 209.99216 414.2072 
" clip-path="url(#p7d1ad5ac1b)" style="fill: none; stroke: #2ca02c; stroke-width: 1.5"/>
    <path d="M 193.915099 414.2072 
L 193.915099 375.453704 
L 205.972895 375.453704 
L 205.972895 391.673636 
" clip-path="url(#p7d1ad5ac1b)" style="fill: none; stroke: #2ca02c; stroke-width: 1.5"/>
    <path d="M 218.030691 414.2072 
L 218.030691 361.253912 
L 226.069221 361.253912 
L 226.069221 414.2072 
" clip-path="url(#p7d1ad5ac1b)" style="fill: none; stroke: #2ca02c; stroke-width: 1.5"/>
    <path d="M 199.943997 375.453704 
L 199.943997 350.597974 
L 222.049956 350.597974 
L 222.049956 361.253912 
" clip-path="url(#p7d1ad5ac1b)" style="fill: none; stroke: #2ca02c; stroke-width: 1.5"/>
    <path d="M 175.828405 371.94665 
L 175.828405 331.535695 
L 210.996976 331.535695 
L 210.996976 350.597974 
" clip-path="url(#p7d1ad5ac1b)" style="fill: none; stroke: #2ca02c; stroke-width: 1.5"/>
    <path d="M 142.669465 363.57746 
L 142.669465 298.047953 
L 193.412691 298.047953 
L 193.412691 331.535695 
" clip-path="url(#p7d1ad5ac1b)" style="fill: none; stroke: #2ca02c; stroke-width: 1.5"/>
   </g>
   <g id="LineCollection_3">
    <path d="M 67.810648 303.538812 
L 67.810648 200.677201 
L 168.041078 200.677201 
L 168.041078 298.047953 
" clip-path="url(#p7d1ad5ac1b)" style="fill: none; stroke: #000000; stroke-width: 1.5"/>
    <path d="M 310.473794 348.489087 
L 310.473794 212.779255 
L 403.325104 212.779255 
L 403.325104 271.939484 
" clip-path="url(#p7d1ad5ac1b)" style="fill: none; stroke: #000000; stroke-width: 1.5"/>
    <path d="M 255.711303 321.718508 
L 255.711303 183.135061 
L 356.899449 183.135061 
L 356.899449 212.779255 
" clip-path="url(#p7d1ad5ac1b)" style="fill: none; stroke: #000000; stroke-width: 1.5"/>
    <path d="M 117.925863 200.677201 
L 117.925863 39.184867 
L 306.305376 39.184867 
L 306.305376 183.135061 
" clip-path="url(#p7d1ad5ac1b)" style="fill: none; stroke: #000000; stroke-width: 1.5"/>
   </g>
   <g id="LineCollection_4">
    <path d="M 242.146283 414.2072 
L 242.146283 391.056867 
L 250.184814 391.056867 
L 250.184814 414.2072 
" clip-path="url(#p7d1ad5ac1b)" style="fill: none; stroke: #ff7f0e; stroke-width: 1.5"/>
    <path d="M 234.107752 414.2072 
L 234.107752 374.019895 
L 246.165548 374.019895 
L 246.165548 391.056867 
" clip-path="url(#p7d1ad5ac1b)" style="fill: none; stroke: #ff7f0e; stroke-width: 1.5"/>
    <path d="M 258.223344 414.2072 
L 258.223344 403.309131 
L 266.261875 403.309131 
L 266.261875 414.2072 
" clip-path="url(#p7d1ad5ac1b)" style="fill: none; stroke: #ff7f0e; stroke-width: 1.5"/>
    <path d="M 282.338936 414.2072 
L 282.338936 391.877612 
L 290.377467 391.877612 
L 290.377467 414.2072 
" clip-path="url(#p7d1ad5ac1b)" style="fill: none; stroke: #ff7f0e; stroke-width: 1.5"/>
    <path d="M 274.300406 414.2072 
L 274.300406 382.324372 
L 286.358202 382.324372 
L 286.358202 391.877612 
" clip-path="url(#p7d1ad5ac1b)" style="fill: none; stroke: #ff7f0e; stroke-width: 1.5"/>
    <path d="M 262.24261 403.309131 
L 262.24261 345.44405 
L 280.329304 345.44405 
L 280.329304 382.324372 
" clip-path="url(#p7d1ad5ac1b)" style="fill: none; stroke: #ff7f0e; stroke-width: 1.5"/>
    <path d="M 240.13665 374.019895 
L 240.13665 321.718508 
L 271.285957 321.718508 
L 271.285957 345.44405 
" clip-path="url(#p7d1ad5ac1b)" style="fill: none; stroke: #ff7f0e; stroke-width: 1.5"/>
   </g>
   <g id="LineCollection_5">
    <path d="M 298.415998 414.2072 
L 298.415998 373.362276 
L 306.454529 373.362276 
L 306.454529 414.2072 
" clip-path="url(#p7d1ad5ac1b)" style="fill: none; stroke: #9467bd; stroke-width: 1.5"/>
    <path d="M 314.493059 414.2072 
L 314.493059 365.936642 
L 322.53159 365.936642 
L 322.53159 414.2072 
" clip-path="url(#p7d1ad5ac1b)" style="fill: none; stroke: #9467bd; stroke-width: 1.5"/>
    <path d="M 302.435263 373.362276 
L 302.435263 348.489087 
L 318.512325 348.489087 
L 318.512325 365.936642 
" clip-path="url(#p7d1ad5ac1b)" style="fill: none; stroke: #9467bd; stroke-width: 1.5"/>
   </g>
   <g id="LineCollection_6">
    <path d="M 330.570121 414.2072 
L 330.570121 384.498259 
L 338.608651 384.498259 
L 338.608651 414.2072 
" clip-path="url(#p7d1ad5ac1b)" style="fill: none; stroke: #1f77b4; stroke-width: 1.5"/>
    <path d="M 346.647182 414.2072 
L 346.647182 383.858649 
L 354.685713 383.858649 
L 354.685713 414.2072 
" clip-path="url(#p7d1ad5ac1b)" style="fill: none; stroke: #1f77b4; stroke-width: 1.5"/>
    <path d="M 334.589386 384.498259 
L 334.589386 364.918617 
L 350.666447 364.918617 
L 350.666447 383.858649 
" clip-path="url(#p7d1ad5ac1b)" style="fill: none; stroke: #1f77b4; stroke-width: 1.5"/>
    <path d="M 370.762774 414.2072 
L 370.762774 393.49144 
L 378.801305 393.49144 
L 378.801305 414.2072 
" clip-path="url(#p7d1ad5ac1b)" style="fill: none; stroke: #1f77b4; stroke-width: 1.5"/>
    <path d="M 362.724243 414.2072 
L 362.724243 385.869148 
L 374.782039 385.869148 
L 374.782039 393.49144 
" clip-path="url(#p7d1ad5ac1b)" style="fill: none; stroke: #1f77b4; stroke-width: 1.5"/>
    <path d="M 418.993958 414.2072 
L 418.993958 385.86426 
L 427.032489 385.86426 
L 427.032489 414.2072 
" clip-path="url(#p7d1ad5ac1b)" style="fill: none; stroke: #1f77b4; stroke-width: 1.5"/>
    <path d="M 410.955428 414.2072 
L 410.955428 374.069967 
L 423.013224 374.069967 
L 423.013224 385.86426 
" clip-path="url(#p7d1ad5ac1b)" style="fill: none; stroke: #1f77b4; stroke-width: 1.5"/>
    <path d="M 402.916897 414.2072 
L 402.916897 369.872896 
L 416.984326 369.872896 
L 416.984326 374.069967 
" clip-path="url(#p7d1ad5ac1b)" style="fill: none; stroke: #1f77b4; stroke-width: 1.5"/>
    <path d="M 394.878366 414.2072 
L 394.878366 359.418977 
L 409.950611 359.418977 
L 409.950611 369.872896 
" clip-path="url(#p7d1ad5ac1b)" style="fill: none; stroke: #1f77b4; stroke-width: 1.5"/>
    <path d="M 386.839836 414.2072 
L 386.839836 355.102978 
L 402.414489 355.102978 
L 402.414489 359.418977 
" clip-path="url(#p7d1ad5ac1b)" style="fill: none; stroke: #1f77b4; stroke-width: 1.5"/>
    <path d="M 368.753141 385.869148 
L 368.753141 340.042452 
L 394.627162 340.042452 
L 394.627162 355.102978 
" clip-path="url(#p7d1ad5ac1b)" style="fill: none; stroke: #1f77b4; stroke-width: 1.5"/>
    <path d="M 342.627917 364.918617 
L 342.627917 335.693116 
L 381.690152 335.693116 
L 381.690152 340.042452 
" clip-path="url(#p7d1ad5ac1b)" style="fill: none; stroke: #1f77b4; stroke-width: 1.5"/>
    <path d="M 451.148081 414.2072 
L 451.148081 391.228087 
L 459.186612 391.228087 
L 459.186612 414.2072 
" clip-path="url(#p7d1ad5ac1b)" style="fill: none; stroke: #1f77b4; stroke-width: 1.5"/>
    <path d="M 483.302204 414.2072 
L 483.302204 393.912861 
L 491.340735 393.912861 
L 491.340735 414.2072 
" clip-path="url(#p7d1ad5ac1b)" style="fill: none; stroke: #1f77b4; stroke-width: 1.5"/>
    <path d="M 475.263673 414.2072 
L 475.263673 384.049705 
L 487.321469 384.049705 
L 487.321469 393.912861 
" clip-path="url(#p7d1ad5ac1b)" style="fill: none; stroke: #1f77b4; stroke-width: 1.5"/>
    <path d="M 467.225143 414.2072 
L 467.225143 372.196663 
L 481.292571 372.196663 
L 481.292571 384.049705 
" clip-path="url(#p7d1ad5ac1b)" style="fill: none; stroke: #1f77b4; stroke-width: 1.5"/>
    <path d="M 455.167346 391.228087 
L 455.167346 358.675914 
L 474.258857 358.675914 
L 474.258857 372.196663 
" clip-path="url(#p7d1ad5ac1b)" style="fill: none; stroke: #1f77b4; stroke-width: 1.5"/>
    <path d="M 443.10955 414.2072 
L 443.10955 334.977453 
L 464.713102 334.977453 
L 464.713102 358.675914 
" clip-path="url(#p7d1ad5ac1b)" style="fill: none; stroke: #1f77b4; stroke-width: 1.5"/>
    <path d="M 435.07102 414.2072 
L 435.07102 294.111331 
L 453.911326 294.111331 
L 453.911326 334.977453 
" clip-path="url(#p7d1ad5ac1b)" style="fill: none; stroke: #1f77b4; stroke-width: 1.5"/>
    <path d="M 362.159034 335.693116 
L 362.159034 271.939484 
L 444.491173 271.939484 
L 444.491173 294.111331 
" clip-path="url(#p7d1ad5ac1b)" style="fill: none; stroke: #1f77b4; stroke-width: 1.5"/>
   </g>
   <g id="line2d_9">
    <path d="M 41.183015 422.082669 
" style="fill: none; stroke: #d62728; stroke-width: 1.5; stroke-linecap: round"/>
    <defs>
     <path id="m133a9e52c3" d="M 0 2.5 
C 0.663008 2.5 1.29895 2.236584 1.767767 1.767767 
C 2.236584 1.29895 2.5 0.663008 2.5 0 
C 2.5 -0.663008 2.236584 -1.29895 1.767767 -1.767767 
C 1.29895 -2.236584 0.663008 -2.5 0 -2.5 
C -0.663008 -2.5 -1.29895 -2.236584 -1.767767 -1.767767 
C -2.236584 -1.29895 -2.5 -0.663008 -2.5 0 
C -2.5 0.663008 -2.236584 1.29895 -1.767767 1.767767 
C -1.29895 2.236584 -0.663008 2.5 0 2.5 
z
" style="stroke: #d62728"/>
    </defs>
    <g>
     <use xlink:href="#m133a9e52c3" x="41.183015" y="422.082669" style="fill: #d62728; stroke: #d62728"/>
    </g>
   </g>
   <g id="line2d_10">
    <path d="M 49.221546 422.082669 
" style="fill: none; stroke: #d62728; stroke-width: 1.5; stroke-linecap: round"/>
    <g>
     <use xlink:href="#m133a9e52c3" x="49.221546" y="422.082669" style="fill: #d62728; stroke: #d62728"/>
    </g>
   </g>
   <g id="line2d_11">
    <path d="M 57.260077 422.082669 
" style="fill: none; stroke: #d62728; stroke-width: 1.5; stroke-linecap: round"/>
    <g>
     <use xlink:href="#m133a9e52c3" x="57.260077" y="422.082669" style="fill: #d62728; stroke: #d62728"/>
    </g>
   </g>
   <g id="line2d_12">
    <path d="M 65.298607 422.082669 
" style="fill: none; stroke: #d62728; stroke-width: 1.5; stroke-linecap: round"/>
    <g>
     <use xlink:href="#m133a9e52c3" x="65.298607" y="422.082669" style="fill: #d62728; stroke: #d62728"/>
    </g>
   </g>
   <g id="line2d_13">
    <path d="M 73.337138 422.082669 
" style="fill: none; stroke: #d62728; stroke-width: 1.5; stroke-linecap: round"/>
    <g>
     <use xlink:href="#m133a9e52c3" x="73.337138" y="422.082669" style="fill: #d62728; stroke: #d62728"/>
    </g>
   </g>
   <g id="line2d_14">
    <path d="M 81.375669 422.082669 
" style="fill: none; stroke: #d62728; stroke-width: 1.5; stroke-linecap: round"/>
    <g>
     <use xlink:href="#m133a9e52c3" x="81.375669" y="422.082669" style="fill: #d62728; stroke: #d62728"/>
    </g>
   </g>
   <g id="line2d_15">
    <path d="M 89.4142 422.082669 
" style="fill: none; stroke: #d62728; stroke-width: 1.5; stroke-linecap: round"/>
    <g>
     <use xlink:href="#m133a9e52c3" x="89.4142" y="422.082669" style="fill: #d62728; stroke: #d62728"/>
    </g>
   </g>
   <g id="line2d_16">
    <path d="M 97.45273 422.082669 
" style="fill: none; stroke: #d62728; stroke-width: 1.5; stroke-linecap: round"/>
    <g>
     <use xlink:href="#m133a9e52c3" x="97.45273" y="422.082669" style="fill: #d62728; stroke: #d62728"/>
    </g>
   </g>
   <g id="line2d_17">
    <path d="M 105.491261 422.082669 
" style="fill: none; stroke: #d62728; stroke-width: 1.5; stroke-linecap: round"/>
    <g>
     <use xlink:href="#m133a9e52c3" x="105.491261" y="422.082669" style="fill: #d62728; stroke: #d62728"/>
    </g>
   </g>
   <g id="line2d_18">
    <path d="M 113.529792 422.082669 
" style="fill: none; stroke: #d62728; stroke-width: 1.5; stroke-linecap: round"/>
    <g>
     <use xlink:href="#m133a9e52c3" x="113.529792" y="422.082669" style="fill: #d62728; stroke: #d62728"/>
    </g>
   </g>
   <g id="line2d_19">
    <path d="M 121.568322 422.082669 
" style="fill: none; stroke: #d62728; stroke-width: 1.5; stroke-linecap: round"/>
    <g>
     <use xlink:href="#m133a9e52c3" x="121.568322" y="422.082669" style="fill: #d62728; stroke: #d62728"/>
    </g>
   </g>
   <g id="line2d_20">
    <path d="M 129.606853 422.082669 
" style="fill: none; stroke: #2ca02c; stroke-width: 1.5; stroke-linecap: round"/>
    <defs>
     <path id="m21c3af9909" d="M 0 2.5 
C 0.663008 2.5 1.29895 2.236584 1.767767 1.767767 
C 2.236584 1.29895 2.5 0.663008 2.5 0 
C 2.5 -0.663008 2.236584 -1.29895 1.767767 -1.767767 
C 1.29895 -2.236584 0.663008 -2.5 0 -2.5 
C -0.663008 -2.5 -1.29895 -2.236584 -1.767767 -1.767767 
C -2.236584 -1.29895 -2.5 -0.663008 -2.5 0 
C -2.5 0.663008 -2.236584 1.29895 -1.767767 1.767767 
C -1.29895 2.236584 -0.663008 2.5 0 2.5 
z
" style="stroke: #2ca02c"/>
    </defs>
    <g>
     <use xlink:href="#m21c3af9909" x="129.606853" y="422.082669" style="fill: #2ca02c; stroke: #2ca02c"/>
    </g>
   </g>
   <g id="line2d_21">
    <path d="M 137.645384 422.082669 
" style="fill: none; stroke: #2ca02c; stroke-width: 1.5; stroke-linecap: round"/>
    <g>
     <use xlink:href="#m21c3af9909" x="137.645384" y="422.082669" style="fill: #2ca02c; stroke: #2ca02c"/>
    </g>
   </g>
   <g id="line2d_22">
    <path d="M 145.683914 422.082669 
" style="fill: none; stroke: #2ca02c; stroke-width: 1.5; stroke-linecap: round"/>
    <g>
     <use xlink:href="#m21c3af9909" x="145.683914" y="422.082669" style="fill: #2ca02c; stroke: #2ca02c"/>
    </g>
   </g>
   <g id="line2d_23">
    <path d="M 153.722445 422.082669 
" style="fill: none; stroke: #2ca02c; stroke-width: 1.5; stroke-linecap: round"/>
    <g>
     <use xlink:href="#m21c3af9909" x="153.722445" y="422.082669" style="fill: #2ca02c; stroke: #2ca02c"/>
    </g>
   </g>
   <g id="line2d_24">
    <path d="M 161.760976 422.082669 
" style="fill: none; stroke: #2ca02c; stroke-width: 1.5; stroke-linecap: round"/>
    <g>
     <use xlink:href="#m21c3af9909" x="161.760976" y="422.082669" style="fill: #2ca02c; stroke: #2ca02c"/>
    </g>
   </g>
   <g id="line2d_25">
    <path d="M 169.799507 422.082669 
" style="fill: none; stroke: #2ca02c; stroke-width: 1.5; stroke-linecap: round"/>
    <g>
     <use xlink:href="#m21c3af9909" x="169.799507" y="422.082669" style="fill: #2ca02c; stroke: #2ca02c"/>
    </g>
   </g>
   <g id="line2d_26">
    <path d="M 177.838037 422.082669 
" style="fill: none; stroke: #2ca02c; stroke-width: 1.5; stroke-linecap: round"/>
    <g>
     <use xlink:href="#m21c3af9909" x="177.838037" y="422.082669" style="fill: #2ca02c; stroke: #2ca02c"/>
    </g>
   </g>
   <g id="line2d_27">
    <path d="M 185.876568 422.082669 
" style="fill: none; stroke: #2ca02c; stroke-width: 1.5; stroke-linecap: round"/>
    <g>
     <use xlink:href="#m21c3af9909" x="185.876568" y="422.082669" style="fill: #2ca02c; stroke: #2ca02c"/>
    </g>
   </g>
   <g id="line2d_28">
    <path d="M 193.915099 422.082669 
" style="fill: none; stroke: #2ca02c; stroke-width: 1.5; stroke-linecap: round"/>
    <g>
     <use xlink:href="#m21c3af9909" x="193.915099" y="422.082669" style="fill: #2ca02c; stroke: #2ca02c"/>
    </g>
   </g>
   <g id="line2d_29">
    <path d="M 201.953629 422.082669 
" style="fill: none; stroke: #2ca02c; stroke-width: 1.5; stroke-linecap: round"/>
    <g>
     <use xlink:href="#m21c3af9909" x="201.953629" y="422.082669" style="fill: #2ca02c; stroke: #2ca02c"/>
    </g>
   </g>
   <g id="line2d_30">
    <path d="M 209.99216 422.082669 
" style="fill: none; stroke: #2ca02c; stroke-width: 1.5; stroke-linecap: round"/>
    <g>
     <use xlink:href="#m21c3af9909" x="209.99216" y="422.082669" style="fill: #2ca02c; stroke: #2ca02c"/>
    </g>
   </g>
   <g id="line2d_31">
    <path d="M 218.030691 422.082669 
" style="fill: none; stroke: #2ca02c; stroke-width: 1.5; stroke-linecap: round"/>
    <g>
     <use xlink:href="#m21c3af9909" x="218.030691" y="422.082669" style="fill: #2ca02c; stroke: #2ca02c"/>
    </g>
   </g>
   <g id="line2d_32">
    <path d="M 226.069221 422.082669 
" style="fill: none; stroke: #2ca02c; stroke-width: 1.5; stroke-linecap: round"/>
    <g>
     <use xlink:href="#m21c3af9909" x="226.069221" y="422.082669" style="fill: #2ca02c; stroke: #2ca02c"/>
    </g>
   </g>
   <g id="line2d_33">
    <path d="M 234.107752 422.082669 
" style="fill: none; stroke: #ff7f0e; stroke-width: 1.5; stroke-linecap: round"/>
    <defs>
     <path id="md226ebe7ad" d="M 0 2.5 
C 0.663008 2.5 1.29895 2.236584 1.767767 1.767767 
C 2.236584 1.29895 2.5 0.663008 2.5 0 
C 2.5 -0.663008 2.236584 -1.29895 1.767767 -1.767767 
C 1.29895 -2.236584 0.663008 -2.5 0 -2.5 
C -0.663008 -2.5 -1.29895 -2.236584 -1.767767 -1.767767 
C -2.236584 -1.29895 -2.5 -0.663008 -2.5 0 
C -2.5 0.663008 -2.236584 1.29895 -1.767767 1.767767 
C -1.29895 2.236584 -0.663008 2.5 0 2.5 
z
" style="stroke: #ff7f0e"/>
    </defs>
    <g>
     <use xlink:href="#md226ebe7ad" x="234.107752" y="422.082669" style="fill: #ff7f0e; stroke: #ff7f0e"/>
    </g>
   </g>
   <g id="line2d_34">
    <path d="M 242.146283 422.082669 
" style="fill: none; stroke: #ff7f0e; stroke-width: 1.5; stroke-linecap: round"/>
    <g>
     <use xlink:href="#md226ebe7ad" x="242.146283" y="422.082669" style="fill: #ff7f0e; stroke: #ff7f0e"/>
    </g>
   </g>
   <g id="line2d_35">
    <path d="M 250.184814 422.082669 
" style="fill: none; stroke: #ff7f0e; stroke-width: 1.5; stroke-linecap: round"/>
    <g>
     <use xlink:href="#md226ebe7ad" x="250.184814" y="422.082669" style="fill: #ff7f0e; stroke: #ff7f0e"/>
    </g>
   </g>
   <g id="line2d_36">
    <path d="M 258.223344 422.082669 
" style="fill: none; stroke: #ff7f0e; stroke-width: 1.5; stroke-linecap: round"/>
    <g>
     <use xlink:href="#md226ebe7ad" x="258.223344" y="422.082669" style="fill: #ff7f0e; stroke: #ff7f0e"/>
    </g>
   </g>
   <g id="line2d_37">
    <path d="M 266.261875 422.082669 
" style="fill: none; stroke: #ff7f0e; stroke-width: 1.5; stroke-linecap: round"/>
    <g>
     <use xlink:href="#md226ebe7ad" x="266.261875" y="422.082669" style="fill: #ff7f0e; stroke: #ff7f0e"/>
    </g>
   </g>
   <g id="line2d_38">
    <path d="M 274.300406 422.082669 
" style="fill: none; stroke: #ff7f0e; stroke-width: 1.5; stroke-linecap: round"/>
    <g>
     <use xlink:href="#md226ebe7ad" x="274.300406" y="422.082669" style="fill: #ff7f0e; stroke: #ff7f0e"/>
    </g>
   </g>
   <g id="line2d_39">
    <path d="M 282.338936 422.082669 
" style="fill: none; stroke: #ff7f0e; stroke-width: 1.5; stroke-linecap: round"/>
    <g>
     <use xlink:href="#md226ebe7ad" x="282.338936" y="422.082669" style="fill: #ff7f0e; stroke: #ff7f0e"/>
    </g>
   </g>
   <g id="line2d_40">
    <path d="M 290.377467 422.082669 
" style="fill: none; stroke: #ff7f0e; stroke-width: 1.5; stroke-linecap: round"/>
    <g>
     <use xlink:href="#md226ebe7ad" x="290.377467" y="422.082669" style="fill: #ff7f0e; stroke: #ff7f0e"/>
    </g>
   </g>
   <g id="line2d_41">
    <path d="M 298.415998 422.082669 
" style="fill: none; stroke: #9467bd; stroke-width: 1.5; stroke-linecap: round"/>
    <defs>
     <path id="m36d25cd553" d="M 0 2.5 
C 0.663008 2.5 1.29895 2.236584 1.767767 1.767767 
C 2.236584 1.29895 2.5 0.663008 2.5 0 
C 2.5 -0.663008 2.236584 -1.29895 1.767767 -1.767767 
C 1.29895 -2.236584 0.663008 -2.5 0 -2.5 
C -0.663008 -2.5 -1.29895 -2.236584 -1.767767 -1.767767 
C -2.236584 -1.29895 -2.5 -0.663008 -2.5 0 
C -2.5 0.663008 -2.236584 1.29895 -1.767767 1.767767 
C -1.29895 2.236584 -0.663008 2.5 0 2.5 
z
" style="stroke: #9467bd"/>
    </defs>
    <g>
     <use xlink:href="#m36d25cd553" x="298.415998" y="422.082669" style="fill: #9467bd; stroke: #9467bd"/>
    </g>
   </g>
   <g id="line2d_42">
    <path d="M 306.454529 422.082669 
" style="fill: none; stroke: #9467bd; stroke-width: 1.5; stroke-linecap: round"/>
    <g>
     <use xlink:href="#m36d25cd553" x="306.454529" y="422.082669" style="fill: #9467bd; stroke: #9467bd"/>
    </g>
   </g>
   <g id="line2d_43">
    <path d="M 314.493059 422.082669 
" style="fill: none; stroke: #9467bd; stroke-width: 1.5; stroke-linecap: round"/>
    <g>
     <use xlink:href="#m36d25cd553" x="314.493059" y="422.082669" style="fill: #9467bd; stroke: #9467bd"/>
    </g>
   </g>
   <g id="line2d_44">
    <path d="M 322.53159 422.082669 
" style="fill: none; stroke: #9467bd; stroke-width: 1.5; stroke-linecap: round"/>
    <g>
     <use xlink:href="#m36d25cd553" x="322.53159" y="422.082669" style="fill: #9467bd; stroke: #9467bd"/>
    </g>
   </g>
   <g id="line2d_45">
    <path d="M 330.570121 422.082669 
" style="fill: none; stroke: #1f77b4; stroke-width: 1.5; stroke-linecap: round"/>
    <defs>
     <path id="mb11e56910e" d="M 0 2.5 
C 0.663008 2.5 1.29895 2.236584 1.767767 1.767767 
C 2.236584 1.29895 2.5 0.663008 2.5 0 
C 2.5 -0.663008 2.236584 -1.29895 1.767767 -1.767767 
C 1.29895 -2.236584 0.663008 -2.5 0 -2.5 
C -0.663008 -2.5 -1.29895 -2.236584 -1.767767 -1.767767 
C -2.236584 -1.29895 -2.5 -0.663008 -2.5 0 
C -2.5 0.663008 -2.236584 1.29895 -1.767767 1.767767 
C -1.29895 2.236584 -0.663008 2.5 0 2.5 
z
" style="stroke: #1f77b4"/>
    </defs>
    <g>
     <use xlink:href="#mb11e56910e" x="330.570121" y="422.082669" style="fill: #1f77b4; stroke: #1f77b4"/>
    </g>
   </g>
   <g id="line2d_46">
    <path d="M 338.608651 422.082669 
" style="fill: none; stroke: #1f77b4; stroke-width: 1.5; stroke-linecap: round"/>
    <g>
     <use xlink:href="#mb11e56910e" x="338.608651" y="422.082669" style="fill: #1f77b4; stroke: #1f77b4"/>
    </g>
   </g>
   <g id="line2d_47">
    <path d="M 346.647182 422.082669 
" style="fill: none; stroke: #1f77b4; stroke-width: 1.5; stroke-linecap: round"/>
    <g>
     <use xlink:href="#mb11e56910e" x="346.647182" y="422.082669" style="fill: #1f77b4; stroke: #1f77b4"/>
    </g>
   </g>
   <g id="line2d_48">
    <path d="M 354.685713 422.082669 
" style="fill: none; stroke: #1f77b4; stroke-width: 1.5; stroke-linecap: round"/>
    <g>
     <use xlink:href="#mb11e56910e" x="354.685713" y="422.082669" style="fill: #1f77b4; stroke: #1f77b4"/>
    </g>
   </g>
   <g id="line2d_49">
    <path d="M 362.724243 422.082669 
" style="fill: none; stroke: #1f77b4; stroke-width: 1.5; stroke-linecap: round"/>
    <g>
     <use xlink:href="#mb11e56910e" x="362.724243" y="422.082669" style="fill: #1f77b4; stroke: #1f77b4"/>
    </g>
   </g>
   <g id="line2d_50">
    <path d="M 370.762774 422.082669 
" style="fill: none; stroke: #1f77b4; stroke-width: 1.5; stroke-linecap: round"/>
    <g>
     <use xlink:href="#mb11e56910e" x="370.762774" y="422.082669" style="fill: #1f77b4; stroke: #1f77b4"/>
    </g>
   </g>
   <g id="line2d_51">
    <path d="M 378.801305 422.082669 
" style="fill: none; stroke: #1f77b4; stroke-width: 1.5; stroke-linecap: round"/>
    <g>
     <use xlink:href="#mb11e56910e" x="378.801305" y="422.082669" style="fill: #1f77b4; stroke: #1f77b4"/>
    </g>
   </g>
   <g id="line2d_52">
    <path d="M 386.839836 422.082669 
" style="fill: none; stroke: #1f77b4; stroke-width: 1.5; stroke-linecap: round"/>
    <g>
     <use xlink:href="#mb11e56910e" x="386.839836" y="422.082669" style="fill: #1f77b4; stroke: #1f77b4"/>
    </g>
   </g>
   <g id="line2d_53">
    <path d="M 394.878366 422.082669 
" style="fill: none; stroke: #1f77b4; stroke-width: 1.5; stroke-linecap: round"/>
    <g>
     <use xlink:href="#mb11e56910e" x="394.878366" y="422.082669" style="fill: #1f77b4; stroke: #1f77b4"/>
    </g>
   </g>
   <g id="line2d_54">
    <path d="M 402.916897 422.082669 
" style="fill: none; stroke: #1f77b4; stroke-width: 1.5; stroke-linecap: round"/>
    <g>
     <use xlink:href="#mb11e56910e" x="402.916897" y="422.082669" style="fill: #1f77b4; stroke: #1f77b4"/>
    </g>
   </g>
   <g id="line2d_55">
    <path d="M 410.955428 422.082669 
" style="fill: none; stroke: #1f77b4; stroke-width: 1.5; stroke-linecap: round"/>
    <g>
     <use xlink:href="#mb11e56910e" x="410.955428" y="422.082669" style="fill: #1f77b4; stroke: #1f77b4"/>
    </g>
   </g>
   <g id="line2d_56">
    <path d="M 418.993958 422.082669 
" style="fill: none; stroke: #1f77b4; stroke-width: 1.5; stroke-linecap: round"/>
    <g>
     <use xlink:href="#mb11e56910e" x="418.993958" y="422.082669" style="fill: #1f77b4; stroke: #1f77b4"/>
    </g>
   </g>
   <g id="line2d_57">
    <path d="M 427.032489 422.082669 
" style="fill: none; stroke: #1f77b4; stroke-width: 1.5; stroke-linecap: round"/>
    <g>
     <use xlink:href="#mb11e56910e" x="427.032489" y="422.082669" style="fill: #1f77b4; stroke: #1f77b4"/>
    </g>
   </g>
   <g id="line2d_58">
    <path d="M 435.07102 422.082669 
" style="fill: none; stroke: #1f77b4; stroke-width: 1.5; stroke-linecap: round"/>
    <g>
     <use xlink:href="#mb11e56910e" x="435.07102" y="422.082669" style="fill: #1f77b4; stroke: #1f77b4"/>
    </g>
   </g>
   <g id="line2d_59">
    <path d="M 443.10955 422.082669 
" style="fill: none; stroke: #1f77b4; stroke-width: 1.5; stroke-linecap: round"/>
    <g>
     <use xlink:href="#mb11e56910e" x="443.10955" y="422.082669" style="fill: #1f77b4; stroke: #1f77b4"/>
    </g>
   </g>
   <g id="line2d_60">
    <path d="M 451.148081 422.082669 
" style="fill: none; stroke: #1f77b4; stroke-width: 1.5; stroke-linecap: round"/>
    <g>
     <use xlink:href="#mb11e56910e" x="451.148081" y="422.082669" style="fill: #1f77b4; stroke: #1f77b4"/>
    </g>
   </g>
   <g id="line2d_61">
    <path d="M 459.186612 422.082669 
" style="fill: none; stroke: #1f77b4; stroke-width: 1.5; stroke-linecap: round"/>
    <g>
     <use xlink:href="#mb11e56910e" x="459.186612" y="422.082669" style="fill: #1f77b4; stroke: #1f77b4"/>
    </g>
   </g>
   <g id="line2d_62">
    <path d="M 467.225143 422.082669 
" style="fill: none; stroke: #1f77b4; stroke-width: 1.5; stroke-linecap: round"/>
    <g>
     <use xlink:href="#mb11e56910e" x="467.225143" y="422.082669" style="fill: #1f77b4; stroke: #1f77b4"/>
    </g>
   </g>
   <g id="line2d_63">
    <path d="M 475.263673 422.082669 
" style="fill: none; stroke: #1f77b4; stroke-width: 1.5; stroke-linecap: round"/>
    <g>
     <use xlink:href="#mb11e56910e" x="475.263673" y="422.082669" style="fill: #1f77b4; stroke: #1f77b4"/>
    </g>
   </g>
   <g id="line2d_64">
    <path d="M 483.302204 422.082669 
" style="fill: none; stroke: #1f77b4; stroke-width: 1.5; stroke-linecap: round"/>
    <g>
     <use xlink:href="#mb11e56910e" x="483.302204" y="422.082669" style="fill: #1f77b4; stroke: #1f77b4"/>
    </g>
   </g>
   <g id="line2d_65">
    <path d="M 491.340735 422.082669 
" style="fill: none; stroke: #1f77b4; stroke-width: 1.5; stroke-linecap: round"/>
    <g>
     <use xlink:href="#mb11e56910e" x="491.340735" y="422.082669" style="fill: #1f77b4; stroke: #1f77b4"/>
    </g>
   </g>
   <g id="patch_3">
    <path d="M 37.16375 414.2072 
L 37.16375 20.43375 
" style="fill: none; stroke: #000000; stroke-width: 0.5; stroke-linejoin: miter; stroke-linecap: square"/>
   </g>
   <g id="patch_4">
    <path d="M 37.16375 414.2072 
L 495.36 414.2072 
" style="fill: none; stroke: #000000; stroke-width: 0.5; stroke-linejoin: miter; stroke-linecap: square"/>
   </g>
   <g id="text_10">
    <!-- Hierarchical Clustering Dendrogram (pca, 5 clusters, hierarchical) -->
    <g transform="translate(150.44875 14.43375) scale(0.08 -0.08)">
     <defs>
      <path id="ArialMT-48" d="M 513 0 
L 513 4581 
L 1119 4581 
L 1119 2700 
L 3500 2700 
L 3500 4581 
L 4106 4581 
L 4106 0 
L 3500 0 
L 3500 2159 
L 1119 2159 
L 1119 0 
L 513 0 
z
" transform="scale(0.015625)"/>
      <path id="ArialMT-72" d="M 416 0 
L 416 3319 
L 922 3319 
L 922 2816 
Q 1116 3169 1280 3281 
Q 1444 3394 1641 3394 
Q 1925 3394 2219 3213 
L 2025 2691 
Q 1819 2813 1613 2813 
Q 1428 2813 1281 2702 
Q 1134 2591 1072 2394 
Q 978 2094 978 1738 
L 978 0 
L 416 0 
z
" transform="scale(0.015625)"/>
      <path id="ArialMT-68" d="M 422 0 
L 422 4581 
L 984 4581 
L 984 2938 
Q 1378 3394 1978 3394 
Q 2347 3394 2619 3248 
Q 2891 3103 3008 2847 
Q 3125 2591 3125 2103 
L 3125 0 
L 2563 0 
L 2563 2103 
Q 2563 2525 2380 2717 
Q 2197 2909 1863 2909 
Q 1613 2909 1392 2779 
Q 1172 2650 1078 2428 
Q 984 2206 984 1816 
L 984 0 
L 422 0 
z
" transform="scale(0.015625)"/>
      <path id="ArialMT-6c" d="M 409 0 
L 409 4581 
L 972 4581 
L 972 0 
L 409 0 
z
" transform="scale(0.015625)"/>
      <path id="ArialMT-43" d="M 3763 1606 
L 4369 1453 
Q 4178 706 3683 314 
Q 3188 -78 2472 -78 
Q 1731 -78 1267 223 
Q 803 525 561 1097 
Q 319 1669 319 2325 
Q 319 3041 592 3573 
Q 866 4106 1370 4382 
Q 1875 4659 2481 4659 
Q 3169 4659 3637 4309 
Q 4106 3959 4291 3325 
L 3694 3184 
Q 3534 3684 3231 3912 
Q 2928 4141 2469 4141 
Q 1941 4141 1586 3887 
Q 1231 3634 1087 3207 
Q 944 2781 944 2328 
Q 944 1744 1114 1308 
Q 1284 872 1643 656 
Q 2003 441 2422 441 
Q 2931 441 3284 734 
Q 3638 1028 3763 1606 
z
" transform="scale(0.015625)"/>
      <path id="ArialMT-75" d="M 2597 0 
L 2597 488 
Q 2209 -75 1544 -75 
Q 1250 -75 995 37 
Q 741 150 617 320 
Q 494 491 444 738 
Q 409 903 409 1263 
L 409 3319 
L 972 3319 
L 972 1478 
Q 972 1038 1006 884 
Q 1059 663 1231 536 
Q 1403 409 1656 409 
Q 1909 409 2131 539 
Q 2353 669 2445 892 
Q 2538 1116 2538 1541 
L 2538 3319 
L 3100 3319 
L 3100 0 
L 2597 0 
z
" transform="scale(0.015625)"/>
      <path id="ArialMT-64" d="M 2575 0 
L 2575 419 
Q 2259 -75 1647 -75 
Q 1250 -75 917 144 
Q 584 363 401 755 
Q 219 1147 219 1656 
Q 219 2153 384 2558 
Q 550 2963 881 3178 
Q 1213 3394 1622 3394 
Q 1922 3394 2156 3267 
Q 2391 3141 2538 2938 
L 2538 4581 
L 3097 4581 
L 3097 0 
L 2575 0 
z
M 797 1656 
Q 797 1019 1065 703 
Q 1334 388 1700 388 
Q 2069 388 2326 689 
Q 2584 991 2584 1609 
Q 2584 2291 2321 2609 
Q 2059 2928 1675 2928 
Q 1300 2928 1048 2622 
Q 797 2316 797 1656 
z
" transform="scale(0.015625)"/>
      <path id="ArialMT-6f" d="M 213 1659 
Q 213 2581 725 3025 
Q 1153 3394 1769 3394 
Q 2453 3394 2887 2945 
Q 3322 2497 3322 1706 
Q 3322 1066 3130 698 
Q 2938 331 2570 128 
Q 2203 -75 1769 -75 
Q 1072 -75 642 372 
Q 213 819 213 1659 
z
M 791 1659 
Q 791 1022 1069 705 
Q 1347 388 1769 388 
Q 2188 388 2466 706 
Q 2744 1025 2744 1678 
Q 2744 2294 2464 2611 
Q 2184 2928 1769 2928 
Q 1347 2928 1069 2612 
Q 791 2297 791 1659 
z
" transform="scale(0.015625)"/>
      <path id="ArialMT-6d" d="M 422 0 
L 422 3319 
L 925 3319 
L 925 2853 
Q 1081 3097 1340 3245 
Q 1600 3394 1931 3394 
Q 2300 3394 2536 3241 
Q 2772 3088 2869 2813 
Q 3263 3394 3894 3394 
Q 4388 3394 4653 3120 
Q 4919 2847 4919 2278 
L 4919 0 
L 4359 0 
L 4359 2091 
Q 4359 2428 4304 2576 
Q 4250 2725 4106 2815 
Q 3963 2906 3769 2906 
Q 3419 2906 3187 2673 
Q 2956 2441 2956 1928 
L 2956 0 
L 2394 0 
L 2394 2156 
Q 2394 2531 2256 2718 
Q 2119 2906 1806 2906 
Q 1569 2906 1367 2781 
Q 1166 2656 1075 2415 
Q 984 2175 984 1722 
L 984 0 
L 422 0 
z
" transform="scale(0.015625)"/>
      <path id="ArialMT-28" d="M 1497 -1347 
Q 1031 -759 709 28 
Q 388 816 388 1659 
Q 388 2403 628 3084 
Q 909 3875 1497 4659 
L 1900 4659 
Q 1522 4009 1400 3731 
Q 1209 3300 1100 2831 
Q 966 2247 966 1656 
Q 966 153 1900 -1347 
L 1497 -1347 
z
" transform="scale(0.015625)"/>
      <path id="ArialMT-70" d="M 422 -1272 
L 422 3319 
L 934 3319 
L 934 2888 
Q 1116 3141 1344 3267 
Q 1572 3394 1897 3394 
Q 2322 3394 2647 3175 
Q 2972 2956 3137 2557 
Q 3303 2159 3303 1684 
Q 3303 1175 3120 767 
Q 2938 359 2589 142 
Q 2241 -75 1856 -75 
Q 1575 -75 1351 44 
Q 1128 163 984 344 
L 984 -1272 
L 422 -1272 
z
M 931 1641 
Q 931 1000 1190 694 
Q 1450 388 1819 388 
Q 2194 388 2461 705 
Q 2728 1022 2728 1688 
Q 2728 2322 2467 2637 
Q 2206 2953 1844 2953 
Q 1484 2953 1207 2617 
Q 931 2281 931 1641 
z
" transform="scale(0.015625)"/>
      <path id="ArialMT-2c" d="M 569 0 
L 569 641 
L 1209 641 
L 1209 0 
Q 1209 -353 1084 -570 
Q 959 -788 688 -906 
L 531 -666 
Q 709 -588 793 -436 
Q 878 -284 888 0 
L 569 0 
z
" transform="scale(0.015625)"/>
      <path id="ArialMT-29" d="M 791 -1347 
L 388 -1347 
Q 1322 153 1322 1656 
Q 1322 2244 1188 2822 
Q 1081 3291 891 3722 
Q 769 4003 388 4659 
L 791 4659 
Q 1378 3875 1659 3084 
Q 1900 2403 1900 1659 
Q 1900 816 1576 28 
Q 1253 -759 791 -1347 
z
" transform="scale(0.015625)"/>
     </defs>
     <use xlink:href="#ArialMT-48"/>
     <use xlink:href="#ArialMT-69" transform="translate(72.216797 0)"/>
     <use xlink:href="#ArialMT-65" transform="translate(94.433594 0)"/>
     <use xlink:href="#ArialMT-72" transform="translate(150.048828 0)"/>
     <use xlink:href="#ArialMT-61" transform="translate(183.349609 0)"/>
     <use xlink:href="#ArialMT-72" transform="translate(238.964844 0)"/>
     <use xlink:href="#ArialMT-63" transform="translate(272.265625 0)"/>
     <use xlink:href="#ArialMT-68" transform="translate(322.265625 0)"/>
     <use xlink:href="#ArialMT-69" transform="translate(377.880859 0)"/>
     <use xlink:href="#ArialMT-63" transform="translate(400.097656 0)"/>
     <use xlink:href="#ArialMT-61" transform="translate(450.097656 0)"/>
     <use xlink:href="#ArialMT-6c" transform="translate(505.712891 0)"/>
     <use xlink:href="#ArialMT-20" transform="translate(527.929688 0)"/>
     <use xlink:href="#ArialMT-43" transform="translate(555.712891 0)"/>
     <use xlink:href="#ArialMT-6c" transform="translate(627.929688 0)"/>
     <use xlink:href="#ArialMT-75" transform="translate(650.146484 0)"/>
     <use xlink:href="#ArialMT-73" transform="translate(705.761719 0)"/>
     <use xlink:href="#ArialMT-74" transform="translate(755.761719 0)"/>
     <use xlink:href="#ArialMT-65" transform="translate(783.544922 0)"/>
     <use xlink:href="#ArialMT-72" transform="translate(839.160156 0)"/>
     <use xlink:href="#ArialMT-69" transform="translate(872.460938 0)"/>
     <use xlink:href="#ArialMT-6e" transform="translate(894.677734 0)"/>
     <use xlink:href="#ArialMT-67" transform="translate(950.292969 0)"/>
     <use xlink:href="#ArialMT-20" transform="translate(1005.908203 0)"/>
     <use xlink:href="#ArialMT-44" transform="translate(1033.691406 0)"/>
     <use xlink:href="#ArialMT-65" transform="translate(1105.908203 0)"/>
     <use xlink:href="#ArialMT-6e" transform="translate(1161.523438 0)"/>
     <use xlink:href="#ArialMT-64" transform="translate(1217.138672 0)"/>
     <use xlink:href="#ArialMT-72" transform="translate(1272.753906 0)"/>
     <use xlink:href="#ArialMT-6f" transform="translate(1306.054688 0)"/>
     <use xlink:href="#ArialMT-67" transform="translate(1361.669922 0)"/>
     <use xlink:href="#ArialMT-72" transform="translate(1417.285156 0)"/>
     <use xlink:href="#ArialMT-61" transform="translate(1450.585938 0)"/>
     <use xlink:href="#ArialMT-6d" transform="translate(1506.201172 0)"/>
     <use xlink:href="#ArialMT-20" transform="translate(1589.501953 0)"/>
     <use xlink:href="#ArialMT-28" transform="translate(1617.285156 0)"/>
     <use xlink:href="#ArialMT-70" transform="translate(1650.585938 0)"/>
     <use xlink:href="#ArialMT-63" transform="translate(1706.201172 0)"/>
     <use xlink:href="#ArialMT-61" transform="translate(1756.201172 0)"/>
     <use xlink:href="#ArialMT-2c" transform="translate(1811.816406 0)"/>
     <use xlink:href="#ArialMT-20" transform="translate(1839.599609 0)"/>
     <use xlink:href="#ArialMT-35" transform="translate(1867.382812 0)"/>
     <use xlink:href="#ArialMT-20" transform="translate(1922.998047 0)"/>
     <use xlink:href="#ArialMT-63" transform="translate(1950.78125 0)"/>
     <use xlink:href="#ArialMT-6c" transform="translate(2000.78125 0)"/>
     <use xlink:href="#ArialMT-75" transform="translate(2022.998047 0)"/>
     <use xlink:href="#ArialMT-73" transform="translate(2078.613281 0)"/>
     <use xlink:href="#ArialMT-74" transform="translate(2128.613281 0)"/>
     <use xlink:href="#ArialMT-65" transform="translate(2156.396484 0)"/>
     <use xlink:href="#ArialMT-72" transform="translate(2212.011719 0)"/>
     <use xlink:href="#ArialMT-73" transform="translate(2245.3125 0)"/>
     <use xlink:href="#ArialMT-2c" transform="translate(2295.3125 0)"/>
     <use xlink:href="#ArialMT-20" transform="translate(2323.095703 0)"/>
     <use xlink:href="#ArialMT-68" transform="translate(2350.878906 0)"/>
     <use xlink:href="#ArialMT-69" transform="translate(2406.494141 0)"/>
     <use xlink:href="#ArialMT-65" transform="translate(2428.710938 0)"/>
     <use xlink:href="#ArialMT-72" transform="translate(2484.326172 0)"/>
     <use xlink:href="#ArialMT-61" transform="translate(2517.626953 0)"/>
     <use xlink:href="#ArialMT-72" transform="translate(2573.242188 0)"/>
     <use xlink:href="#ArialMT-63" transform="translate(2606.542969 0)"/>
     <use xlink:href="#ArialMT-68" transform="translate(2656.542969 0)"/>
     <use xlink:href="#ArialMT-69" transform="translate(2712.158203 0)"/>
     <use xlink:href="#ArialMT-63" transform="translate(2734.375 0)"/>
     <use xlink:href="#ArialMT-61" transform="translate(2784.375 0)"/>
     <use xlink:href="#ArialMT-6c" transform="translate(2839.990234 0)"/>
     <use xlink:href="#ArialMT-29" transform="translate(2862.207031 0)"/>
    </g>
   </g>
  </g>
 </g>
 <defs>
  <clipPath id="p7d1ad5ac1b">
   <rect x="37.16375" y="20.43375" width="458.19625" height="393.77345"/>
  </clipPath>
 </defs>
</svg>
